<?xml version="1.0" standalone="no"?>
<!DOCTYPE svg PUBLIC "-//W3C//DTD SVG 1.1//EN" "http://www.w3.org/Graphics/SVG/1.1/DTD/svg11.dtd" >
<svg>
<metadata>
Created by FontForge 20110222 at Mon Mar  7 08:36:40 2011
 By www-data
Harri Pera:la: 2000
</metadata>
<defs>
<font id="TengwarCursive" horiz-adv-x="0" >
  <font-face 
    font-family="Tengwar Cursive"
    font-weight="400"
    font-stretch="normal"
    units-per-em="2048"
    panose-1="0 0 0 0 0 0 0 0 0 0"
    ascent="1638"
    descent="-410"
    x-height="296"
    cap-height="306"
    bbox="-842 -921.158 808 1150"
    underline-thickness="0"
    underline-position="0"
    unicode-range="U+0020-00EB"
  />
    <missing-glyph />
    <glyph glyph-name="F" unicode="F" 
d="M-200 448l-8 12l131 86l18 -28z" />
    <glyph glyph-name="F" unicode="R" 
d="M-200 448l-8 12l131 86l18 -28z" />
    <glyph glyph-name="G" unicode="G" 
d="M-148 461h-18l-8 47q18 64 36 -2z" />
    <glyph glyph-name="G" unicode="T" 
d="M-148 461h-18l-8 47q18 64 36 -2z" />
    <glyph glyph-name="seven" unicode="7" horiz-adv-x="369" 
d="M132 188q70 67 162 108q40 16 75 -9.5t32 -79.5q-30 -158 -62 -288q-28 -154 -70 -296t-96 -276q-38 -99 -93 -233l-28 12q55 126 97 267q34 108 69 239t67 285q30 138 60 288q-2 55 -59 46q-23 -3 -145 -80zM1 257q-21 6 -1 18q50 15 99 15q35 -13 65 -101
q80 -152 152 -243q-65 12 -102 46q-62 104 -105 197q-24 60 -37 66q-13 9 -71 2z" />
    <glyph glyph-name="two" unicode="2" horiz-adv-x="682" 
d="M214 196q88 82 204 136q48 -4 78 -70q66 51 152 72q44 -4 61 -70q7 -112 -39 -222q-24 -38 -56 -50q-29 35 -27 55t43 -10q14 13 31 54q19 55 9 143q-8 38 -50 52q-52 -14 -116 -52q10 -76 -44 -192q-20 -42 -55 -48q-27 33 -27.5 55t43.5 -12q13 13 31 53q18 58 12 128
q-8 32 -56 60q-82 -28 -194 -114v32zM-2 260q-28 6 -2 24q64 36 194 36q38 -42 42 -150q4 -132 -28 -262q-28 -154 -82 -330q-30 -108 -84 -242q-56 -134 -104 -227l-20 13q54 118 100 260q34 108 66 206q38 164 70 318q30 138 24 250q-5 75 -26 112q-46 26 -150 -8z" />
    <glyph glyph-name="five" unicode="5" horiz-adv-x="686" 
d="M214 196q88 82 204 136q48 -4 78 -70q66 51 152 72q44 -4 61 -70q7 -112 -39 -222q-24 -38 -56 -50q-29 35 -27 55t43 -10q14 13 31 54q19 55 9 143q-8 38 -50 52q-52 -14 -116 -52q10 -76 -44 -192q-20 -42 -55 -48q-27 33 -27.5 55t43.5 -12q13 13 31 53q18 58 12 128
q-8 32 -56 60q-82 -28 -194 -114v32zM0 288q114 46 170 32q18 4 42 -72q10 -44 10 -96q0 -72 -22 -148l-78 -6q30 64 38 160q-2 70 -32 112q-30 18 -126 -14q-36 12 -2 32z" />
    <glyph glyph-name="four" unicode="4" horiz-adv-x="544" 
d="M68 196q88 82 204 136q48 -4 78 -70q66 51 152 72q44 -4 61 -70q7 -112 -39 -222q-24 -38 -56 -50q-26 38 -27 57q22 -12 43 -12q14 13 31 54q19 55 9 143q-8 38 -50 52q-52 -14 -116 -52q10 -76 -44 -192q-20 -42 -55 -48q-23 30 -26 51q17 -11 42 -8q13 13 31 53
q18 58 12 128q-8 32 -56 60q-82 -28 -194 -114v32zM50 120q10 66 16 116q18 120 24 230q10 120 70 282q76 160 236 302q66 64 142 100q32 -8 40 -30q-16 4 -36 10q-66 -40 -128 -104q-148 -140 -218 -298q-50 -142 -58 -258q-6 -106 -22 -238l-12 -108q-6 -44 -16 -118
l-64 -10q14 60 26 124z" />
    <glyph glyph-name="one" unicode="1" horiz-adv-x="472" 
d="M218 192q80 86 196 140q60 -4 86 -98q10 -76 -44 -192q-20 -42 -55 -48q-26 38 -21.5 55t39.5 -10q11 11 29 51q18 58 12 128q-8 32 -56 60q-82 -28 -186 -112v26zM-2 260q-28 6 -2 24q64 36 194 36q38 -42 42 -150q4 -132 -28 -262q-28 -154 -82 -330q-30 -108 -84 -242
q-56 -134 -104 -227l-20 13q54 118 100 260q34 108 66 206q38 164 70 318q30 138 24 250q-5 75 -26 112q-46 26 -150 -8z" />
    <glyph glyph-name="three" unicode="3" horiz-adv-x="346" 
d="M101 193q80 86 196 140q60 -4 86 -98q10 -76 -44 -192q-20 -42 -55 -48q-26 38 -21.5 55t39.5 -10q11 11 29 51q18 58 12 128q-8 32 -56 60q-82 -28 -186 -112v26zM50 120q10 66 16 116q18 120 24 230q10 120 70 282q76 160 236 302q66 64 142 100q32 -8 40 -30
q-16 4 -36 10q-66 -40 -128 -104q-148 -140 -218 -298q-50 -142 -58 -258q-6 -106 -22 -238l-12 -108q-6 -44 -16 -118l-64 -10q14 60 26 124z" />
    <glyph glyph-name="six" unicode="6" horiz-adv-x="467" 
d="M218 192q80 86 196 140q60 -4 86 -98q10 -76 -44 -192q-20 -42 -55 -48q-26 38 -21.5 55t39.5 -10q11 11 29 51q18 58 12 128q-8 32 -56 60q-82 -28 -186 -112v26zM0 288q114 46 170 32q18 4 42 -72q10 -44 10 -96q0 -72 -22 -148l-78 -6q30 64 38 160q-2 70 -32 112
q-30 18 -126 -14q-36 12 -2 32z" />
    <glyph glyph-name="H" unicode="H" 
d="M-261 275q78 202 117 268t87 67q57 -13 42 -82q-6 -37 -52 -34q-30 7 -27.5 36.5t31.5 39.5q14 -1 19 -24l17 16q-12 31 -30 29q-53 -7 -59.5 -57.5t46.5 -62.5q65 -7 82 55q7 99 -69 104q-58 2 -102 -69.5t-124 -282.5z" />
    <glyph glyph-name="H" unicode="Y" 
d="M-261 275q78 202 117 268t87 67q57 -13 42 -82q-6 -37 -52 -34q-30 7 -27.5 36.5t31.5 39.5q14 -1 19 -24l17 16q-12 31 -30 29q-53 -7 -59.5 -57.5t46.5 -62.5q65 -7 82 55q7 99 -69 104q-58 2 -102 -69.5t-124 -282.5z" />
    <glyph glyph-name="D" unicode="D" 
d="M-155 452h-14q-4 73 -10 107q37 52 46 -9q-15 -29 -22 -98zM-232 487q-4 25 21 27q23 -15 31 -62l-13 -8q-12 42 -39 43zM-145 451l11 -4q16 37 46 45q8 30 -24 25q-18 -23 -33 -66z" />
    <glyph glyph-name="D" unicode="E" 
d="M-155 452h-14q-4 73 -10 107q37 52 46 -9q-15 -29 -22 -98zM-232 487q-4 25 21 27q23 -15 31 -62l-13 -8q-12 42 -39 43zM-145 451l11 -4q16 37 46 45q8 30 -24 25q-18 -23 -33 -66z" />
    <glyph glyph-name="J" unicode="J" 
d="M-278 282q70 114 140 172t70 108.5t-65 47.5q-42 -17 -35 -63q6 -30 35 -25q24 9 24 24.5t-27 23.5l5 21q40 -12 40 -43.5t-40 -46.5q-44 -3 -64 42q-6 74 62 87q90 4 86.5 -66t-70.5 -121t-143 -167z" />
    <glyph glyph-name="J" unicode="U" 
d="M-278 282q70 114 140 172t70 108.5t-65 47.5q-42 -17 -35 -63q6 -30 35 -25q24 9 24 24.5t-27 23.5l5 21q40 -12 40 -43.5t-40 -46.5q-44 -3 -64 42q-6 74 62 87q90 4 86.5 -66t-70.5 -121t-143 -167z" />
    <glyph glyph-name="grave" unicode="`" horiz-adv-x="201" 
d="M2 266l140 52q39 -6 49 -51q10 -65 7 -127t-40 -136l-70 -6q44 62 49.5 145.5t-13.5 118.5q-29 7 -120 -14q-22 6 -2 18z" />
    <glyph glyph-name="N" unicode="N" 
d="M-135 257q78 202 117 268t87 67q57 -13 42 -82q-6 -37 -52 -34q-30 7 -27.5 36.5t31.5 39.5q14 -1 19 -24l17 16q-12 31 -30 29q-53 -7 -59.5 -57.5t46.5 -62.5q65 -7 82 55q7 99 -69 104q-58 2 -102 -69.5t-124 -282.5z" />
    <glyph glyph-name="C" unicode="C" 
d="M-79 449h-14q-4 73 -10 107q37 52 46 -9q-15 -29 -22 -98zM-152 484q-4 25 21 27q23 -15 31 -62l-13 -8q-12 42 -39 43zM-69 450l11 -4q16 37 46 45q8 30 -24 25q-18 -23 -33 -66z" />
    <glyph glyph-name="M" unicode="M" 
d="M-162 268q70 114 140 172t70 108.5t-65 47.5q-42 -17 -35 -63q6 -30 35 -25q24 9 24 24.5t-27 23.5l5 21q40 -12 40 -43.5t-40 -46.5q-44 -3 -64 42q-6 74 62 87q90 4 86.5 -66t-70.5 -121t-143 -167z" />
    <glyph glyph-name="V" unicode="V" 
d="M-142 445l-8 12l131 86l18 -28z" />
    <glyph glyph-name="B" unicode="B" 
d="M-78 458h-18l-8 44q20 60 38 -2z" />
    <glyph glyph-name="t" unicode="t" horiz-adv-x="688" 
d="M214 196q88 82 204 136q48 -4 78 -70q66 51 152 72q44 -4 61 -70q7 -112 -50 -232q35 1 78 28q16 -2 -13.5 -28t-64.5 -28q-273 6 -459 0l-6 22q104 10 236 10q4 14 22 54q18 58 12 128q-8 32 -56 60q-82 -28 -194 -114v32zM457 36q71 -2 176 -6q11 20 28 61q19 55 9 143
q-8 38 -50 52q-52 -14 -116 -52q10 -76 -47 -198zM0 288q114 46 170 32q18 4 42 -72q10 -44 10 -96q0 -72 -22 -148l-78 -6q30 64 38 160q-2 70 -32 112q-30 18 -126 -14q-36 12 -2 32z" />
    <glyph glyph-name="y" unicode="y" horiz-adv-x="455" 
d="M202 189q80 86 196 140q60 -4 86 -98q10 -76 -59 -205q63 7 111 39q15 -8 -27 -37q-56 -29 -115 -27q-114 3 -195 3l-14 18q84 10 212 4q17 21 35 61q18 58 12 128q-8 32 -56 60q-82 -28 -186 -112v26zM0 288q114 46 170 32q18 4 42 -72q10 -44 10 -96q0 -72 -22 -148
l-78 -6q30 64 38 160q-2 70 -32 112q-30 18 -126 -14q-36 12 -2 32z" />
    <glyph glyph-name="q" unicode="q" horiz-adv-x="468" 
d="M202 189q80 86 196 140q60 -4 86 -98q10 -76 -59 -205q63 7 111 39q15 -8 -27 -37q-56 -29 -115 -27q-114 3 -195 3l-14 18q84 10 212 4q17 21 35 61q18 58 12 128q-8 32 -56 60q-82 -28 -186 -112v26zM-2 260q-28 6 -2 24q64 36 194 36q38 -42 42 -150q4 -132 -28 -262
q-28 -154 -82 -330q-30 -108 -84 -242q-56 -134 -104 -227l-20 13q54 118 100 260q34 108 66 206q38 164 70 318q30 138 24 250q-5 75 -26 112q-46 26 -150 -8z" />
    <glyph glyph-name="w" unicode="w" horiz-adv-x="692" 
d="M214 196q88 82 204 136q48 -4 78 -70q66 51 152 72q44 -4 61 -70q7 -112 -50 -232q35 1 78 28q16 -2 -13.5 -28t-64.5 -28q-273 6 -459 0l-6 22q104 10 236 10q4 14 22 54q18 58 12 128q-8 32 -56 60q-82 -28 -194 -114v32zM457 36q71 -2 176 -6q11 20 28 61q19 55 9 143
q-8 38 -50 52q-52 -14 -116 -52q10 -76 -47 -198zM-2 260q-28 6 -2 24q64 36 194 36q38 -42 42 -150q4 -132 -28 -262q-28 -154 -82 -330q-30 -108 -84 -242q-56 -134 -104 -227l-20 13q54 118 100 260q34 108 66 206q38 164 70 318q30 138 24 250q-5 75 -26 112
q-46 26 -150 -8z" />
    <glyph glyph-name="e" unicode="e" horiz-adv-x="342" 
d="M92 189q80 86 196 140q60 -4 86 -98q10 -76 -59 -205q63 7 111 39q15 -8 -27 -37q-56 -29 -115 -27q-114 3 -195 3l-14 18q84 10 212 4q17 21 35 61q18 58 12 128q-8 32 -56 60q-82 -28 -186 -112v26zM50 120q10 66 16 116q18 120 24 230q10 120 70 282q76 160 236 302
q66 64 142 100q32 -8 40 -30q-16 4 -36 10q-66 -40 -128 -104q-148 -140 -218 -298q-50 -142 -58 -258q-6 -106 -22 -238l-12 -108q-6 -44 -16 -118l-64 -10q14 60 26 124z" />
    <glyph glyph-name="r" unicode="r" horiz-adv-x="578" 
d="M100 196q88 82 204 136q48 -4 78 -70q66 51 152 72q44 -4 61 -70q7 -112 -50 -232q35 1 78 28q16 -2 -13.5 -28t-69.5 -28q-210 6 -454 0l-6 22q104 10 238 16q14 26 24 52q14 54 8 124q-8 32 -56 60q-82 -28 -194 -114v32zM344 42q100 0 175 -12q11 20 28 61
q19 55 9 143q-8 38 -50 52q-52 -14 -116 -52q10 -76 -46 -192zM50 120q10 66 16 116q18 120 24 230q10 120 70 282q76 160 236 302q66 64 142 100q32 -8 40 -30q-16 4 -36 10q-66 -40 -128 -104q-148 -140 -218 -298q-50 -142 -58 -258q-6 -106 -22 -238l-12 -108
q-6 -44 -16 -118l-64 -10q14 60 26 124z" />
    <glyph glyph-name="s" unicode="s" horiz-adv-x="612" 
d="M574 122q-88 -82 -204 -136q-48 4 -78 70q-66 -51 -152 -72q-44 4 -74 64q-48 146 46 240q30 26 62 38q29 -35 27 -55t-43 10q-26 -13 -40 -41q-38 -46 -14 -136q22 -58 64 -72q52 14 116 52q-42 118 26 202q38 32 73 38q27 -33 27.5 -55t-43.5 12q-27 -11 -45 -43
q-28 -42 2 -138q8 -32 56 -60q82 28 194 114v-32zM556 174l10 74q16 36 68 46l8 -34q-32 -10 -26 -86q-8 -130 -28 -262q-28 -154 -82 -330q-30 -108 -84 -242q-56 -134 -104 -227l-20 13q54 118 100 260q34 108 66 206q38 164 70 318q16 144 22 264z" />
    <glyph glyph-name="a" unicode="a" horiz-adv-x="402" 
d="M348 174l12 78q16 32 72 50l8 -40q-28 -16 -32 -88q-8 -130 -28 -262q-28 -154 -82 -330q-30 -108 -84 -242q-56 -134 -104 -227l-20 13q54 118 100 260q34 108 66 206q38 164 70 318q16 144 22 264zM366 122q-100 -124 -204 -136q-48 4 -78 70l-8 28q-42 118 26 202
q38 32 73 38q27 -33 27.5 -55t-43.5 12q-27 -11 -45 -43q-28 -42 2 -138q8 -32 56 -60q70 -2 194 114v-32z" />
    <glyph glyph-name="S" unicode="S" horiz-adv-x="612" 
d="M576 268q38 464 102 596q44 96 118 162l12 -18q-66 -82 -98 -168q-44 -148 -82 -576q-22 -236 -40 -352q-16 -128 -82 -330q-30 -108 -84 -242q-56 -134 -104 -227l-20 13q54 118 100 260q34 108 66 206q56 204 70 318q20 140 42 358zM574 122q-88 -82 -204 -136
q-48 4 -78 70q-66 -51 -152 -72q-44 4 -74 64q-48 146 46 240q30 26 62 38q29 -35 27 -55t-43 10q-26 -13 -40 -41q-38 -46 -14 -136q22 -58 64 -72q52 14 116 52q-42 118 26 202q38 32 73 38q27 -33 27.5 -55t-43.5 12q-27 -11 -45 -43q-28 -42 2 -138q8 -32 56 -60
q82 28 194 114v-32z" />
    <glyph glyph-name="A" unicode="A" horiz-adv-x="392" 
d="M348 272q38 464 102 596q44 96 118 162l12 -18q-66 -82 -98 -168q-44 -148 -82 -576q-22 -236 -40 -352q-16 -128 -82 -330q-30 -108 -84 -242q-56 -134 -104 -227l-20 13q54 118 100 260q34 108 66 206q56 204 70 318q20 140 42 358zM366 122q-100 -124 -204 -136
q-48 4 -78 70l-8 28q-42 118 26 202q38 32 73 38q27 -33 27.5 -55t-43.5 12q-27 -11 -45 -43q-28 -42 2 -138q8 -32 56 -60q70 -2 194 114v-32z" />
    <glyph glyph-name="h" unicode="h" horiz-adv-x="404" 
d="M348 174l12 78q16 32 72 50l8 -40q-28 -16 -32 -88q-8 -130 -16 -174l-70 -6q20 60 26 180zM366 122q-100 -124 -204 -136q-48 4 -78 70l-8 28q-42 118 26 202q38 32 73 38q27 -33 27.5 -55t-43.5 12q-27 -11 -45 -43q-28 -42 2 -138q8 -32 56 -60q70 -2 194 114v-32z
" />
    <glyph glyph-name="g" unicode="g" horiz-adv-x="612" 
d="M556 174l12 78q16 32 72 50l8 -40q-28 -16 -32 -88q-8 -130 -16 -174l-70 -6q20 60 26 180zM574 122q-88 -82 -204 -136q-48 4 -78 70q-66 -51 -152 -72q-44 4 -74 64q-48 146 46 240q30 26 62 38q29 -35 27 -55t-43 10q-26 -13 -40 -41q-38 -46 -14 -136q22 -58 64 -72
q52 14 116 52q-42 118 26 202q38 32 73 38q27 -33 27.5 -55t-43.5 12q-27 -11 -45 -43q-28 -42 2 -138q8 -32 56 -60q82 28 194 114v-32z" />
    <glyph glyph-name="b" unicode="b" horiz-adv-x="618" 
d="M574 122q-105 -114 -204 -136q-48 4 -79 69q-73 -63 -151 -71q-44 4 -74 64q-48 146 52 232q-57 -1 -117 -16q-31 5 -1 22q82 36 254 34l141 -1q215 -2 236 11l-17 -46l-260 -1q-61 -74 -30 -183q8 -32 56 -60q77 7 194 114v-32zM147 281q-67 -87 -43 -177q22 -58 64 -72
q55 6 114 51q-35 101 37 200zM556 174l9 85q11 41 33 59l51 30q-29 -72 -33 -174q-8 -130 -16 -174l-70 -6q20 60 26 180z" />
    <glyph glyph-name="n" unicode="n" horiz-adv-x="396" 
d="M97 282q-31 4 -96 -9q-29 0 1 23q47 20 96 23h73q218 -1 226 5l-7 -42h-260q-61 -72 -30 -181q8 -32 56 -60q77 7 194 114v-32q-105 -114 -204 -136q-49 3 -88 97q-35 101 39 198zM336 174l9 85q11 41 33 59l51 30q-29 -72 -33 -174q-8 -130 -16 -174l-70 -6
q20 60 26 180z" />
    <glyph glyph-name="X" unicode="X" horiz-adv-x="620" 
d="M574 122q-105 -114 -204 -136q-48 4 -79 69q-73 -63 -151 -71q-44 4 -74 64q-48 146 52 232q-57 -1 -117 -16q-31 5 -1 22q82 36 254 34l141 -1q215 -2 236 11l-17 -46l-260 -1q-61 -74 -30 -183q8 -32 56 -60q77 7 194 114v-32zM147 281q-67 -87 -43 -177q22 -58 64 -72
q55 6 114 51q-35 101 37 200zM576 268q38 464 102 596q44 96 118 162l12 -18q-66 -82 -98 -168q-44 -148 -82 -576q-22 -236 -40 -352q-16 -128 -82 -330q-30 -108 -84 -242q-56 -134 -104 -227l-20 13q54 118 100 260q34 108 66 206q56 204 70 318q20 140 42 358z" />
    <glyph glyph-name="Z" unicode="Z" horiz-adv-x="392" 
d="M97 282q-31 4 -96 -9q-29 0 1 23q47 20 96 23h73q218 -1 226 5l-7 -42h-260q-61 -72 -30 -181q8 -32 56 -60q77 7 194 114v-32q-105 -114 -204 -136q-49 3 -88 97q-35 101 39 198zM348 272q38 464 102 596q44 96 118 162l12 -18q-66 -82 -98 -168q-44 -148 -82 -576
q-22 -236 -40 -352q-16 -128 -82 -330q-30 -108 -84 -242q-56 -134 -104 -227l-20 13q54 118 100 260q34 108 66 206q56 204 70 318q20 140 42 358z" />
    <glyph glyph-name="z" unicode="z" horiz-adv-x="392" 
d="M343 214l12 87q34 24 82 36q-37 -33 -43 -162q-8 -130 -28 -262q-28 -154 -82 -330q-30 -108 -84 -242q-56 -134 -104 -227l-20 13q54 118 100 260q34 108 66 206q38 164 70 318q16 144 31 303zM97 282q-31 4 -96 -9q-29 0 1 23q47 20 96 23h73q218 -1 226 5l-7 -42h-260
q-61 -72 -30 -181q8 -32 56 -60q77 7 194 114v-32q-105 -114 -204 -136q-49 3 -88 97q-35 101 39 198z" />
    <glyph glyph-name="x" unicode="x" horiz-adv-x="616" 
d="M565 214l10 83q35 31 83 42q-37 -55 -42 -164q-8 -130 -28 -262q-28 -154 -82 -330q-30 -108 -84 -242q-56 -134 -104 -227l-20 13q54 118 100 260q34 108 66 206q38 164 70 318q16 144 31 303zM574 122q-105 -114 -204 -136q-48 4 -79 69q-73 -63 -151 -71q-44 4 -74 64
q-48 146 52 232q-57 -1 -117 -16q-31 5 -1 22q82 36 254 34l141 -1q215 -2 236 11l-17 -46l-260 -1q-61 -74 -30 -183q8 -32 56 -60q77 7 194 114v-32zM147 281q-67 -87 -43 -177q22 -58 64 -72q55 6 114 51q-35 101 37 200z" />
    <glyph glyph-name="j" unicode="j" horiz-adv-x="732" 
d="M0 238q150 76 224 74q28 2 189 -16t337 -6q52 -8 0 -32q-224 -16 -394 6q-204 -184 -174 -308q30 -148 198 -156q142 -4 214 81t20 175q-28 22 -48 2t-19 2t26 43t69 -23q58 -148 -41 -238t-225 -76q-228 6 -258 186q-28 130 208 316q-100 10 -167 -3t-157 -51
q-26 4 -2 24z" />
    <glyph glyph-name="period" unicode="." horiz-adv-x="379" 
d="M101 340zM283 318q-44 22 -104 11q-117 -21 -133 -157q-1 -149 136 -171q-89 66 -78 166q8 123 179 151zM168 6q22 -16 109 -3q85 40 108 148q30 167 -151 179q134 -61 97 -178q-21 -99 -163 -146z" />
    <glyph glyph-name="i" unicode="i" horiz-adv-x="336" 
d="M132 16q46 -8 22 24l-72 84q52 124 144 112q40 0 84 -78q34 -124 -84 -482q-72 -212 -234 -538l22 -16q170 306 256 540q140 426 84 564q-44 80 -116 80q-96 -2 -141 -86t-55 -146z" />
    <glyph glyph-name="asterisk" unicode="*" horiz-adv-x="332" 
d="M284 268q-28 0 -12 -22l50 -42q-42 -166 -142 -154q-52 10 -78 58q-32 112 100 296l278 400l-12 14l-296 -392q-172 -238 -116 -364q46 -70 118 -70q96 2 137 92t41 160z" />
    <glyph glyph-name="asterisk" unicode="8" horiz-adv-x="332" 
d="M284 268q-28 0 -12 -22l50 -42q-42 -166 -142 -154q-52 10 -78 58q-32 112 100 296l278 400l-12 14l-296 -392q-172 -238 -116 -364q46 -70 118 -70q96 2 137 92t41 160z" />
    <glyph glyph-name="nine" unicode="9" horiz-adv-x="478" 
d="M102 24q-36 2 -92 18l-10 -20q45 -20 114 -24q66 8 222 244q96 -250 132 -242q40 -10 120 30l-12 22q-42 -24 -92 -20q-30 10 -155 380t-159 412q-42 36 -88 21t-54 -81q-2 -112 168 -238l10 16q-160 152 -142 230q20 62 66 16q56 -96 190 -500q-162 -272 -218 -264z" />
    <glyph glyph-name="semicolon" unicode=";" 
d="M-344 -93q31 45 82 54q34 4 75 -8.5t63 -14.5q21 -5 65 22q-21 -43 -63 -53q-39 -1 -72 12.5t-64 11.5q-25 0 -86 -24z" />
    <glyph glyph-name="colon" unicode=":" 
d="M-569 -88q67 54 178 59q54 2 112.5 -9t102.5 -12q42 -6 139 21q-96 -63 -140 -60q-57 1 -116 11t-99 8q-98 2 -177 -18z" />
    <glyph glyph-name="question" unicode="?" 
d="M-842 -912q66 46 177 51q54 2 112.5 -9t102.5 -12q42 -6 140 12q-97 -54 -141 -51q-57 1 -116 11t-99 8q-98 2 -176 -10z" />
    <glyph glyph-name="slash" unicode="/" 
d="M-596 -906q29 34 80 43q34 4 74.5 -7t65.5 -8q20 -4 69 15q-27 -44 -69 -45q-34 -1 -69.5 8t-66.5 7q-25 0 -84 -13z" />
    <glyph glyph-name="asciitilde" unicode="~" horiz-adv-x="194" 
d="M2 242q-22 14 2 30l130 42q76 16 80 -132q10 -122 -5 -284t-57 -320q-46 -188 -140 -468l-26 8q80 290 122 470q36 162 48 307t6 271q-8 80 -34 94q-32 10 -126 -18z" />
    <glyph glyph-name="m" unicode="m" horiz-adv-x="704" 
d="M0 240q150 76 224 74q28 2 189 -16t311 -10q56 -4 2 -30q-200 -14 -370 8q-214 -128 -190 -190q-4 -50 274 -90q176 -22 208 -66q94 -126 -118 -192q-96 -26 -188 -22t-96 34q-20 44 16 78l16 6q-6 -34 8 -64q30 -32 83 -35t159 21q154 56 58 142q-60 26 -190 44
q-258 40 -300 80q-80 100 240 256q-110 12 -177 -2t-157 -50q-26 4 -2 24z" />
    <glyph glyph-name="u" unicode="u" horiz-adv-x="368" 
d="M231 -20q-56 -229 -57 -256q-4 -47 54 -83q-31 54 -28 91l55 233q-11 5 -24 15zM132 188q70 67 162 108q40 16 75 -9.5t32 -79.5q-30 -158 -62 -288q-28 -154 -70 -296t-96 -276q-38 -99 -93 -233l-28 12q55 126 97 267q34 108 69 239t67 285q30 138 60 288q-2 55 -59 46
q-23 -3 -145 -80zM1 257q-21 6 -1 18q50 15 99 15q35 -13 65 -101q80 -152 152 -243q-65 12 -102 46q-62 104 -105 197q-24 60 -37 66q-13 9 -71 2z" />
    <glyph glyph-name="comma" unicode="," horiz-adv-x="282" 
d="M76 -110l-12 -24q212 140 202 16q-22 -160 -107 -332t-253 -404l20 -16q172 224 291 456t95 358q-34 106 -236 -54zM-6 150q-28 -42 6 -38q104 150 204 142q30 -6 40 -42q2 -62 -47 -153t-165 -203l14 -12q126 98 187 185t67 209q-16 72 -88 72q-80 -12 -135 -64t-83 -96
z" />
    <glyph glyph-name="K" unicode="K" horiz-adv-x="320" 
d="M120 102l22 28q-56 56 -44 134t106 229t310 309l-10 16q-232 -152 -363 -359t-87 -285q32 -70 66 -72zM388 -24l-64 20q-10 -28 30 -44q-16 -110 -58 -180t-134 -78q-118 18 -130 138q-16 64 69 188t229 238l-6 20q-162 -108 -260 -239t-94 -223q24 -158 182 -162
q118 10 169 94t67 228z" />
    <glyph glyph-name="K" unicode="k" horiz-adv-x="320" 
d="M120 102l22 28q-56 56 -44 134t106 229t310 309l-10 16q-232 -152 -363 -359t-87 -285q32 -70 66 -72zM388 -24l-64 20q-10 -28 30 -44q-16 -110 -58 -180t-134 -78q-118 18 -130 138q-16 64 69 188t229 238l-6 20q-162 -108 -260 -239t-94 -223q24 -158 182 -162
q118 10 169 94t67 228z" />
    <glyph glyph-name="l" unicode="l" horiz-adv-x="378" 
d="M104 246q18 44 42 58t48 -16l18 -28q-134 -224 -153 -222t-47 26l-12 -18q58 -52 77 -41t153 219q36 -58 91 -140.5t89 -85.5q46 -6 92 43l-13 19q-34 -37 -63 -34q-20 6 -63.5 75.5t-122.5 198.5q-40 60 -83 48t-77 -92z" />
    <glyph glyph-name="asciicircum" unicode="^" 
d="M-471 283q78 202 117 268t87 67q57 -13 42 -82q-6 -37 -52 -34q-30 7 -27.5 36.5t31.5 39.5q14 -1 19 -24l17 16q-12 31 -30 29q-53 -7 -59.5 -57.5t46.5 -62.5q65 -7 82 55q7 99 -69 104q-58 2 -102 -69.5t-124 -282.5z" />
    <glyph glyph-name="numbersign" unicode="#" 
d="M-278 451h-14q-4 73 -10 107q37 52 46 -9q-15 -29 -22 -98zM-353 486q-4 25 21 27q23 -15 31 -62l-13 -8q-12 42 -39 43zM-268 452l11 -4q16 37 46 45q8 30 -24 25q-18 -23 -33 -66z" />
    <glyph glyph-name="dollar" unicode="$" 
d="M-354 446l-8 12l131 86l18 -28z" />
    <glyph glyph-name="dollar" unicode="&#xa4;" 
d="M-354 446l-8 12l131 86l18 -28z" />
    <glyph glyph-name="percent" unicode="%" 
d="M-279 461h-18l-7 45q24 70 36 -4z" />
    <glyph glyph-name="ampersand" unicode="&#x26;" 
d="M-492 282q70 114 140 172t70 108.5t-65 47.5q-42 -17 -35 -63q6 -30 35 -25q24 9 24 24.5t-27 23.5l5 21q40 -12 40 -43.5t-40 -46.5q-44 -3 -64 42q-6 74 62 87q90 4 86.5 -66t-70.5 -121t-143 -167z" />
    <glyph glyph-name="hyphen" unicode="-" horiz-adv-x="272" 
d="M120 173l-42 -42l42 -41l42 42zM142 309l-42 -42l42 -41l42 42z" />
    <glyph glyph-name="equal" unicode="=" horiz-adv-x="205" 
d="M115 243l-42 -42l43 -40l41 41z" />
    <glyph glyph-name="o" unicode="o" horiz-adv-x="350" 
d="M558 840q-44 0 -62 -24q-52 -106 -176 -640l-24 -128q-36 -20 -112 -2q-96 60 -60 150q96 126 202 -36l12 22q-52 110 -125 123t-123 -89q-30 -70 -18 -135t82 -77q118 -14 180 6l54 -9q36 -4 59 0q30 9 41 26l-10 17q-19 -7 -39 -10q-36 -5 -67 12q-28 14 -8 90
q122 554 166 666q8 20 36 20q28 20 -8 18z" />
    <glyph glyph-name="P" unicode="P" 
d="M-426 304q2 112 134 122q99 -3 156.5 -12.5t105.5 -9.5q44 2 116 28q-44 -72 -94 -66q-80 -4 -140 6t-152 14q-96 -18 -126 -82z" />
    <glyph glyph-name="p" unicode="p" 
d="M-252 336q31 66 82 75q34 4 73.5 -5t67.5 -10q18 -4 83 18q-24 -44 -83 -48q-40 0 -73 8.5t-64 6.5q-26 -7 -86 -45z" />
    <glyph glyph-name="Iacute" unicode="&#xcd;" 
d="M-216 -37l-32 -32l31 -31l32 32zM-109 -35l-32 -32l31 -31l32 32z" />
    <glyph glyph-name="Iacute" unicode="&#xce;" 
d="M-216 -37l-32 -32l31 -31l32 32zM-109 -35l-32 -32l31 -31l32 32z" />
    <glyph glyph-name="Igrave" unicode="&#xcc;" 
d="M-189 -36l-33 -35l33 -31l32 31zM-346 -36l-33 -35l33 -31l32 31z" />
    <glyph glyph-name="c" unicode="c" horiz-adv-x="388" 
d="M348 272q38 464 102 596q44 96 118 162l12 -18q-66 -82 -98 -168q-44 -148 -82 -576q-20 -180 -16 -268l-72 -12q14 66 36 284zM97 282q-31 4 -96 -9q-29 0 1 23q47 20 96 23h73q218 -1 226 5l-7 -42h-260q-61 -72 -30 -181q8 -32 56 -60q77 7 194 114v-32
q-105 -114 -204 -136q-49 3 -88 97q-35 101 39 198z" />
    <glyph glyph-name="v" unicode="v" horiz-adv-x="616" 
d="M576 268q38 464 102 596q44 96 118 162l12 -18q-66 -82 -98 -168q-44 -148 -82 -576q-22 -236 -16 -264l-80 -16q22 66 44 284zM574 122q-105 -114 -204 -136q-48 4 -79 69q-73 -63 -151 -71q-44 4 -74 64q-48 146 52 232q-57 -1 -117 -16q-31 5 -1 22q82 36 254 34
l141 -1q215 -2 236 11l-17 -46l-260 -1q-61 -74 -30 -183q8 -32 56 -60q77 7 194 114v-32zM147 281q-67 -87 -43 -177q22 -58 64 -72q55 6 114 51q-35 101 37 200z" />
    <glyph glyph-name="d" unicode="d" horiz-adv-x="388" 
d="M348 272q38 464 102 596q44 96 118 162l12 -18q-66 -82 -98 -168q-44 -148 -82 -576q-20 -180 -16 -268l-72 -12q14 66 36 284zM366 122q-100 -124 -204 -136q-48 4 -78 70l-8 28q-42 118 26 202q38 32 73 38q27 -33 27.5 -55t-43.5 12q-27 -11 -45 -43q-28 -42 2 -138
q8 -32 56 -60q70 -2 194 114v-32z" />
    <glyph glyph-name="f" unicode="f" horiz-adv-x="616" 
d="M576 268q38 464 102 596q44 96 118 162l12 -18q-66 -82 -98 -168q-44 -148 -82 -576q-22 -236 -16 -264l-80 -16q22 66 44 284zM574 122q-88 -82 -204 -136q-48 4 -78 70q-66 -51 -152 -72q-44 4 -74 64q-48 146 46 240q30 26 62 38q29 -35 27 -55t-43 10
q-26 -13 -40 -41q-38 -46 -14 -136q22 -58 64 -72q52 14 116 52q-42 118 26 202q38 32 73 38q27 -33 27.5 -55t-43.5 12q-27 -11 -45 -43q-28 -42 2 -138q8 -32 56 -60q82 28 194 114v-32z" />
    <glyph glyph-name="Q" unicode="Q" horiz-adv-x="460" 
d="M192 268q38 464 102 596q44 96 118 162l12 -18q-66 -82 -98 -168q-44 -148 -82 -576q-22 -236 -40 -352q-16 -128 -82 -330q-30 -108 -84 -242q-56 -134 -104 -227l-20 13q54 118 100 260q34 108 66 206q56 204 70 318q20 140 42 358zM202 189q80 86 196 140
q60 -4 86 -98q10 -76 -59 -205q63 7 111 39q15 -8 -27 -37q-56 -29 -115 -27q-114 3 -195 3l-14 18q84 10 212 4q17 21 35 61q18 58 12 128q-8 32 -56 60q-82 -28 -186 -112v26z" />
    <glyph glyph-name="exclam" unicode="!" horiz-adv-x="472" 
d="M192 268q38 464 102 596q44 96 118 162l12 -18q-66 -82 -98 -168q-44 -148 -82 -576q-22 -236 -40 -352q-16 -128 -82 -330q-30 -108 -84 -242q-56 -134 -104 -227l-20 13q54 118 100 260q34 108 66 206q56 204 70 318q20 140 42 358zM218 192q80 86 196 140
q60 -4 86 -98q10 -76 -44 -192q-20 -42 -55 -48q-26 38 -21.5 55t39.5 -10q11 11 29 51q18 58 12 128q-8 32 -56 60q-82 -28 -186 -112v26z" />
    <glyph glyph-name="at" unicode="@" horiz-adv-x="696" 
d="M192 268q38 464 102 596q44 96 118 162l12 -18q-66 -82 -98 -168q-44 -148 -82 -576q-22 -236 -40 -352q-16 -128 -82 -330q-30 -108 -84 -242q-56 -134 -104 -227l-20 13q54 118 100 260q34 108 66 206q56 204 70 318q20 140 42 358zM214 196q88 82 204 136
q48 -4 78 -70q66 51 152 72q44 -4 61 -70q7 -112 -39 -222q-24 -38 -56 -50q-29 35 -27 55t43 -10q14 13 31 54q19 55 9 143q-8 38 -50 52q-52 -14 -116 -52q10 -76 -44 -192q-20 -42 -55 -48q-27 33 -27.5 55t43.5 -12q13 13 31 53q18 58 12 128q-8 32 -56 60
q-82 -28 -194 -114v32z" />
    <glyph glyph-name="W" unicode="W" horiz-adv-x="696" 
d="M192 268q38 464 102 596q44 96 118 162l12 -18q-66 -82 -98 -168q-44 -148 -82 -576q-22 -236 -40 -352q-16 -128 -82 -330q-30 -108 -84 -242q-56 -134 -104 -227l-20 13q54 118 100 260q34 108 66 206q56 204 70 318q20 140 42 358zM214 196q88 82 204 136
q48 -4 78 -70q66 51 152 72q44 -4 61 -70q7 -112 -50 -232q35 1 78 28q16 -2 -13.5 -28t-64.5 -28q-273 6 -459 0l-6 22q104 10 236 10q4 14 22 54q18 58 12 128q-8 32 -56 60q-82 -28 -194 -114v32zM457 36q71 -2 176 -6q11 20 28 61q19 55 9 143q-8 38 -50 52
q-52 -14 -116 -52q10 -76 -47 -198z" />
    <glyph glyph-name="backslash" unicode="\" horiz-adv-x="712" 
d="M14 178q58 52 172 70q46 2 107 -12t151 -22q82 -4 218 26q-102 -80 -216 -72q-84 4 -141 16t-121 18q-100 -6 -170 -24z" />
    <glyph glyph-name="backslash" unicode="&#xe5;" horiz-adv-x="712" 
d="M14 178q58 52 172 70q46 2 107 -12t151 -22q82 -4 218 26q-102 -80 -216 -72q-84 4 -141 16t-121 18q-100 -6 -170 -24z" />
    <glyph glyph-name="plus" unicode="+" horiz-adv-x="226" 
d="M-8 44q126 42 246 38q78 -10 94 -100q-5 -95 -90 -129q-63 -19 -116.5 -7t-59.5 60q0 50 46 72t88 -14q22 -36 -20 -20q-39 38 -67 11t3 -71q36 -38 119 -12q53 27 55 101q-5 49 -29.5 66t-63.5 23q-91 -8 -165 -38q-40 -14 -80 -20l-4 26z" />
    <glyph glyph-name="underscore" unicode="_" horiz-adv-x="298" 
d="M-138 112q254 2 378 -2q144 -4 138 -88q-16 -98 -109 -103t-102 52t71 77q50 0 42 -44l-20 -4q4 26 -22 24q-40 -2 -37 -38t57 -46q72 8 70 82q-6 66 -88 68q-148 6 -338 4z" />
    <glyph glyph-name="Edieresis" unicode="&#xcb;" 
d="M-52 -152q-38 -22 -38 12q6 32 34 38q12 -12 4 -50z" />
    <glyph glyph-name="O" unicode="O" 
d="M-208 -154q-38 -22 -38 12q6 32 34 38q12 -12 4 -50z" />
    <glyph glyph-name="O" unicode="&#xca;" 
d="M-208 -154q-38 -22 -38 12q6 32 34 38q12 -12 4 -50z" />
    <glyph glyph-name="O" unicode="&#xc9;" 
d="M-208 -154q-38 -22 -38 12q6 32 34 38q12 -12 4 -50z" />
    <glyph glyph-name="parenleft" unicode="(" 
d="M-276 -156q-38 -22 -38 12q6 32 34 38q12 -12 4 -50z" />
    <glyph glyph-name="parenleft" unicode="&#xc8;" 
d="M-276 -156q-38 -22 -38 12q6 32 34 38q12 -12 4 -50z" />
    <glyph glyph-name="greater" unicode="&#x3e;" 
d="M-80 -90l24 -4q2 -22 0 -56q-48 -38 -50 6q14 38 26 54zM14 -86q-6 -30 -34 -20q-12 14 -18 42l20 14q22 -22 32 -36zM-102 -64l-16 14l-40 -32q0 -32 30 -28q11 15 26 46z" />
    <glyph glyph-name="bracketright" unicode="]" horiz-adv-x="282" 
d="M312 94q-52 -78 -132 -91t-110 25q-28 38 -28 70t10 72q34 82 124 134q38 20 80 12q16 -36 8 -59t-44 19q-28 2 -56 -18q-64 -38 -74 -100q-2 -32 1 -48t29 -48q30 -36 87 -23t89 65q30 26 16 -10z" />
    <glyph glyph-name="space" unicode=" " horiz-adv-x="282" 
 />
    <glyph glyph-name="zero" unicode="0" 
d="M144 1087q31 45 82 54q34 4 75 -8.5t63 -14.5q21 -5 65 22q-21 -43 -63 -53q-39 -1 -72 12.5t-64 11.5q-25 0 -86 -24z" />
    <glyph glyph-name="parenright" unicode=")" 
d="M-130 1060q20 70 136 78q99 -3 156.5 -12.5t105.5 -9.5q44 2 116 28q-38 -50 -94 -60q-80 -8 -154 4t-140 12q-72 6 -126 -40z" />
    <glyph glyph-name="bar" unicode="|" 
d="M-90 76q-54 -53 -78 -82t-68.5 -86.5t-46.5 -115.5q10 -48 57 -57t63 25v54q18 -8 18 -56q6 -34 -55 -49t-105 23q-16 42 -2 94t80.5 128t119.5 122h17z" />
    <glyph glyph-name="Ocircumflex" unicode="&#xd4;" 
d="M-340 444l-18 2v42q26 40 40 -6zM-220 440l-18 2v42q26 42 40 -6z" />
    <glyph glyph-name="multiply" unicode="&#xd7;" 
d="M-146 444l-18 2v42q26 40 40 -6zM-26 436l-18 2v42q26 42 40 -6z" />
    <glyph glyph-name="Otilde" unicode="&#xd5;" 
d="M-210 438l-18 2v42q26 40 40 -6zM-86 436l-18 2v42q26 42 40 -6z" />
    <glyph glyph-name="Otilde" unicode="&#xd6;" 
d="M-210 438l-18 2v42q26 40 40 -6zM-86 436l-18 2v42q26 42 40 -6z" />
    <glyph glyph-name="Yacute" unicode="&#xdd;" 
d="M-233 444q63 61 95 131q-2 -62 65 -121l-4 -7q-65 46 -71 66q-8 -18 -81 -75z" />
    <glyph glyph-name="Yacute" unicode="&#xde;" 
d="M-233 444q63 61 95 131q-2 -62 65 -121l-4 -7q-65 46 -71 66q-8 -18 -81 -75z" />
    <glyph glyph-name="Udieresis" unicode="&#xdc;" 
d="M-359 455q63 61 95 131q-2 -62 65 -121l-4 -7q-65 46 -71 66q-8 -18 -79 -75z" />
    <glyph glyph-name="Ucircumflex" unicode="&#xdb;" 
d="M-167 523l75 -82l118 108l-8 6l-108 -75l-69 51z" />
    <glyph glyph-name="Aacute" unicode="&#xc1;" horiz-adv-x="307" 
d="M307 446q-169 -41 -163 -100q-2 -14 23 -128.5t22 -128.5q-2 -22 -86 -105q153 71 144 131q1 12 -23.5 125.5t-17.5 127.5q7 21 101 78z" />
    <glyph glyph-name="Agrave" unicode="&#xc0;" horiz-adv-x="536" 
d="M148 590q42 -6 52 -32q38 -168 -18 -488q-34 -178 -80 -280l10 -6q72 116 118 290q66 328 24 486q-14 46 -46 54zM222 512q76 38 130 32q80 -8 75 -96t-165 -162q112 18 131 -64t-75 -160q-122 -98 -154 -98q84 70 136 116q48 66 40 127t-124 65q98 54 130 96
q44 60 31 104t-59 46q-34 0 -96 -6z" />
    <glyph glyph-name="Ugrave" unicode="&#xd9;" 
d="M-237 523l75 -82l118 108l-8 6l-108 -75l-69 51z" />
    <glyph glyph-name="Ugrave" unicode="&#xda;" 
d="M-237 523l75 -82l118 108l-8 6l-108 -75l-69 51z" />
    <glyph glyph-name="Oslash" unicode="&#xd8;" 
d="M-361 525l75 -82l118 108l-8 6l-108 -75l-69 51z" />
    <glyph glyph-name="egrave" unicode="&#xe8;" 
d="M-42 302q102 114 122 158t-86 46q-143 -1 -200.5 -10.5t-143.5 -11.5q-56 -10 -49 10t97 52q-154 -24 -140 -66t40 -38q148 4 208 13t152 13q40 2 66 -5t-66 -161z" />
    <glyph glyph-name="eacute" unicode="&#xe9;" 
d="M-40 302q90 98 106 143t-70 45q-64 8 -115 -2t-111 -16q-58 -10 -50 9t88 49q-134 -12 -126 -59t66 -45q42 6 81 14t131 12q40 2 61 -8t-61 -142z" />
    <glyph glyph-name="eacute" unicode="&#xea;" 
d="M-40 302q90 98 106 143t-70 45q-64 8 -115 -2t-111 -16q-58 -10 -50 9t88 49q-134 -12 -126 -59t66 -45q42 6 81 14t131 12q40 2 61 -8t-61 -142z" />
    <glyph glyph-name="edieresis" unicode="&#xeb;" 
d="M-42 302q92 110 106 152t-68 46q-68 6 -122 -6q-64 -16 -75 -3t37 51q-74 -16 -78 -58t54 -42q84 20 148 20q46 6 67 -6t-69 -154z" />
    <glyph glyph-name="Idieresis" unicode="&#xcf;" 
d="M-154 -35l-32 -32l31 -31l32 32zM-51 -33l-32 -32l31 -31l32 32z" />
    <glyph glyph-name="bracketleft" unicode="[" 
d="M-280 360v34h304v-34h-304z" />
    <glyph glyph-name="quotesingle" unicode="'" 
d="M-289 -88v34h229v-34h-229z" />
    <glyph glyph-name="onehalf" unicode="&#xbd;" horiz-adv-x="118" 
d="M64 272q38 464 102 596q44 96 118 162l12 -18q-66 -82 -98 -168q-44 -148 -82 -576q-20 -180 -16 -268l-72 -12q14 66 36 284z" />
    <glyph glyph-name="quotedbl" unicode="&#x22;" 
d="M-444 -89v34h364v-34h-364z" />
    <glyph glyph-name="threequarters" unicode="&#xbe;" horiz-adv-x="732" 
d="M0 240q150 76 224 74q28 2 189 -16t335 -8q54 -6 2 -30q-224 -16 -394 6q-204 -184 -174 -308q30 -148 198 -156q142 -4 214 81t20 185q-43 45 -87 1q-22 -43 22 -66q51 -29 86 -25l-4 -28q-51 -4 -106 25t-35 84t85 63q48 -3 72 -42q53 -146 -46 -236t-225 -76
q-228 6 -258 186q-28 130 208 316q-100 10 -167 -4t-157 -50q-26 4 -2 24zM666 -10l-2 -30q63 11 116 90l-14 18q-39 -65 -100 -78z" />
    <glyph glyph-name="onequarter" unicode="&#xbc;" 
d="M-469 274q85 211 124 277t87 67q57 -13 42 -82q-6 -37 -52 -34q-30 7 -27.5 36.5t31.5 39.5q14 -1 19 -24l17 16q-12 31 -30 29q-53 -7 -59.5 -57.5t46.5 -62.5q65 -7 82 55q7 99 -69 104q-59 -2 -102.5 -71.5t-131.5 -292.5h23zM-518 274l-9 -1q-11 44 29.5 138.5
t108.5 208.5q39 38 96 10l-17 -12q-35 18 -64 -14q-61 -105 -102.5 -196.5t-41.5 -133.5z" />
    <glyph glyph-name="uni00B3" unicode="&#xb3;" 
d="M-258 275q78 202 117 268t87 67q57 -13 42 -82q-6 -37 -52 -34q-30 7 -27.5 36.5t31.5 39.5q14 -1 19 -24l17 16q-12 31 -30 29q-53 -7 -59.5 -57.5t46.5 -62.5q65 -7 82 55q7 99 -69 104q-58 2 -102 -69.5t-125 -285.5h23zM-309 277l-9 -1q-12 41 28.5 135.5
t108.5 208.5q39 38 99 7l-20 -9q-35 18 -64 -14q-61 -105 -102.5 -196.5t-40.5 -130.5z" />
    <glyph glyph-name="questiondown" unicode="&#xbf;" 
d="M-103 257q78 202 117 268t87 67q57 -13 42 -82q-6 -37 -52 -34q-30 7 -27.5 36.5t31.5 39.5q14 -1 19 -24l17 16q-12 31 -30 29q-53 -7 -59.5 -57.5t46.5 -62.5q65 -7 82 55q7 99 -69 104q-58 2 -102 -69.5t-124 -282.5zM-173 257l-19 2q78 224 152 332q36 39 93 11
l-17 -12q-35 18 -64 -14q-63 -97 -145 -319z" />
    <glyph glyph-name="braceleft" unicode="{" 
d="M-405 360v34h429v-34h-429z" />
    <glyph glyph-name="I" unicode="I" horiz-adv-x="336" 
d="M136 16q46 -8 22 24l-72 84q52 124 144 112q40 0 84 -78q16 -76 -28 -290t-178 -364q-56 -44 -128 -14q-36 32 -44 68q-6 120 56 226l-10 12q-86 -136 -84 -244q-2 -58 42 -108q40 -20 90 -14t110 58q176 184 211 432t7 306q-44 80 -116 80q-96 -2 -141 -86t-55 -146z
" />
  </font>
</defs>
</svg>
